<svg viewBox="0 0 47 47" id="service" xmlns="http://www.w3.org/2000/svg">
  <path d="M43.19 36.66a5.87 5.87 0 0 1 1.46 2.73 6 6 0 0 1 0 3.1 5.76 5.76 0 0 1-1.6 2.68A6 6 0 0 1 38.77 47a5.78 5.78 0 0 1-2.35-.47 6.11 6.11 0 0 1-2-1.32l-12-12-12 12.08A5.9 5.9 0 0 1 6.11 47a5.9 5.9 0 0 1-4.32-1.79 6.13 6.13 0 0 1 0-8.65l15.79-15.22L11 14.8l-.56.56-6-.85L0 6.86l4.84-4.74 7.76 4.41.8 6-.56.56 6.63 6.58L22 17.06a11.75 11.75 0 0 1-.89-4.18 12.5 12.5 0 0 1 1.74-6.44 13.09 13.09 0 0 1 4.7-4.7A12.83 12.83 0 0 1 34.12 0a8.34 8.34 0 0 1 2.35.33 13 13 0 0 1 2.87 1.46l.19 2-7.33 7.43 3.71 3.62 7.33-7.38 2 .19a13.54 13.54 0 0 1 1.46 3 7.92 7.92 0 0 1 .3 2.28 12.83 12.83 0 0 1-1.74 6.53 13.09 13.09 0 0 1-4.7 4.7 12.5 12.5 0 0 1-6.44 1.74h-1.83ZM20.73 31.3l-2.87-2.87L21.29 25l-1.93-1.88L3.57 38.35a3.67 3.67 0 0 0-1 2.54 3.6 3.6 0 0 0 1 2.54 3.27 3.27 0 0 0 2.35 1 3.43 3.43 0 0 0 2.51-1ZM9.59 12.69l1.08-1.08-.52-3.48-4.93-2.87-2 2 2.91 4.89Zm11.56 8.79L23 23.31l3.43-3.43 2.82 2.77.19-.38a10 10 0 0 0 2.35.7 12.17 12.17 0 0 0 2.35.28 10 10 0 0 0 5.19-1.41 10.48 10.48 0 0 0 3.76-3.78 10.1 10.1 0 0 0 1.39-5.19 5.62 5.62 0 0 0 0-1.08 4.7 4.7 0 0 0-.48-1.36l-7 7h-2L29.47 12v-1.75l7-7a4.7 4.7 0 0 0-1.36-.47 5.52 5.52 0 0 0-1.08 0 10.1 10.1 0 0 0-5.19 1.39 10.48 10.48 0 0 0-3.74 3.7 10 10 0 0 0-1.41 5.19 10.1 10.1 0 0 0 1 4.09l-.33 1.36Zm20.12 17-14.85-15-5 5 14.95 15a3.5 3.5 0 0 0 3.85.75 4.18 4.18 0 0 0 1.17-.75 3.15 3.15 0 0 0 1-2.35 3 3 0 0 0-1.12-2.64Z"></path>
</svg>